<?xml version="1.0" encoding="utf-8"?>
<!-- Generator: Adobe Illustrator 25.3.1, SVG Export Plug-In . SVG Version: 6.00 Build 0)  -->
<svg version="1.1" id="图层_1" xmlns="http://www.w3.org/2000/svg" xmlns:xlink="http://www.w3.org/1999/xlink" x="0px"
	y="0px" viewBox="0 0 200 186.7" style="enable-background:new 0 0 200 186.7;" xml:space="preserve">
	<style type="text/css">
		.st0 {
			fill: #FFFFFF;
		}
	</style>
	<g>
		<path d="M186,157H45c-2.8,0-5-2.2-5-5V11c0-2,1.2-3.8,3.1-4.6c1.9-0.8,4-0.3,5.4,1.1l141,141c1.4,1.4,1.9,3.6,1.1,5.4
		C189.8,155.8,188,157,186,157z M50,147h123.9L50,23.1V147z" fill="#a8b1ff" />
	</g>
	<g>
		<circle cx="137.4" cy="63.6" r="47.4" fill-opacity="0" />
		<path d="M137.4,116C108.5,116,85,92.5,85,63.6s23.5-52.4,52.4-52.4s52.4,23.5,52.4,52.4S166.3,116,137.4,116z M137.4,21.2
		C114,21.2,95,40.2,95,63.6s19,42.4,42.4,42.4s42.4-19,42.4-42.4S160.8,21.2,137.4,21.2z" fill="#a8b1ff" />
	</g>
	<path d="M69.2,179.9H40.8c-8.3,0-16-4.5-20.2-11.7L6.4,143.7c-4.2-7.2-4.2-16.1,0-23.3l14.2-24.6c4.2-7.2,11.9-11.7,20.2-11.7h28.4
	c8.3,0,16,4.5,20.2,11.7l14.2,24.6c4.2,7.2,4.2,16.1,0,23.3l-14.2,24.6C85.3,175.5,77.5,179.9,69.2,179.9z M40.8,94.1
	c-4.7,0-9.2,2.6-11.5,6.7L15,125.3c-2.4,4.1-2.4,9.2,0,13.3l14.2,24.6c2.4,4.1,6.8,6.7,11.5,6.7h28.4c4.7,0,9.2-2.6,11.5-6.7
	L95,138.7c2.4-4.1,2.4-9.2,0-13.3l-14.2-24.6c-2.4-4.1-6.8-6.7-11.5-6.7H40.8z" fill="#a8b1ff" />
</svg>